<svg width="194" height="43" viewBox="0 0 194 43" fill="none" xmlns="http://www.w3.org/2000/svg">
<path fill-rule="evenodd" clip-rule="evenodd" d="M171.533 0.230019C168.118 1.05672 167.778 1.60714 164.274 11.99C162.782 16.4104 161.249 20.9392 160.865 22.0528C160.371 23.4892 160.222 24.0977 160.354 24.1452C161.7 24.6257 164.991 25.9021 166.831 26.6568C168.112 27.1826 169.197 27.5741 169.244 27.5277C169.343 27.428 171.148 21.3125 172.588 16.1918C173.563 12.7228 173.762 12.1681 173.955 12.3617C174.002 12.4092 174.488 14.1533 175.033 16.2376C175.948 19.7365 178.468 29.0435 178.995 30.8708L179.221 31.6564L181.386 32.8394C184.13 34.3392 186.185 35.5521 189.695 37.7442C191.23 38.7032 192.511 39.4621 192.542 39.4312C192.625 39.348 182.945 6.50389 182.467 5.2457C181.392 2.41785 179.807 0.835911 177.428 0.216151C176.296 -0.0782613 172.774 -0.070261 171.533 0.230019ZM20.6041 0.373492C18.5715 0.814577 17.197 1.74422 16.245 3.32029C15.6855 4.24673 1.01391 39.3026 1.13498 39.4232C1.17498 39.4637 2.46464 38.6722 4.00124 37.6647C7.02004 35.6854 12.0741 32.6143 14.1974 31.4692C15.8711 30.5668 15.2625 31.8095 19.3512 20.9418C23.1429 10.8651 23.3535 10.351 23.6938 10.351C24.0053 10.351 23.9232 10.1542 26.895 18.0463C28.3788 21.9856 29.6173 25.2343 29.6477 25.2663C29.6786 25.2978 31.1293 24.8092 32.8718 24.1815C34.6143 23.5532 36.7109 22.8177 37.5312 22.5472C38.8278 22.12 39.0107 22.0176 38.9307 21.7659C38.6513 20.8853 31.6131 4.22112 31.2787 3.64777C29.5602 0.703639 25.2182 -0.628685 20.6041 0.373492ZM111.77 0.353224C109.84 0.822044 108.183 2.15917 107.6 3.71817C107.233 4.69848 104.948 12.798 105.022 12.8551C105.049 12.8764 106.648 12.9756 108.576 13.0759C113.228 13.3181 119.361 13.9415 123.108 14.5538C123.715 14.6525 123.766 14.637 123.685 14.373C123.636 14.2141 122.97 11.8215 122.204 9.05547C120.704 3.63443 120.421 2.9384 119.288 1.87916C117.65 0.34629 114.462 -0.300671 111.77 0.353224ZM56.3203 0.834311C47.5556 2.03116 43.1261 7.56793 42.7352 17.818C42.692 18.9492 42.6296 20.0981 42.596 20.3701C42.5181 21.008 42.3842 21.0213 45.8921 20.0463C47.5135 19.5957 49.912 18.9716 51.2225 18.6601L53.6044 18.0932L53.7079 17.1785C54.1815 12.9916 56.0899 10.559 59.6879 9.55362C60.8416 9.23147 61.1712 9.21921 70.1364 9.16747C77.1804 9.12747 79.3928 9.07093 79.3895 8.93279C79.3874 8.83252 78.8519 6.93378 78.1996 4.71235L77.0135 0.674304L67.4221 0.65137C60.0965 0.633769 57.4745 0.676971 56.3203 0.834311ZM80.3139 0.635903C80.3171 0.657237 81.0926 3.48563 82.0377 6.92204L83.7556 13.1698L85.4223 13.1447C88.1259 13.1031 94.1987 12.8167 94.2894 12.726C94.3353 12.6802 93.6606 9.9323 92.7896 6.62016L91.2061 0.598034H85.7573C82.7604 0.598034 80.3107 0.615102 80.3139 0.635903ZM136.996 0.658303C136.996 0.691372 136.071 4.22272 134.939 8.50558C133.808 12.7879 132.882 16.3806 132.882 16.4889C132.882 16.6211 133.599 16.8259 135.053 17.1102C136.248 17.3438 138.39 17.8041 139.813 18.1337C141.238 18.4628 142.513 18.7322 142.648 18.7322C142.835 18.7322 143.103 18.0121 143.787 15.6782C145.053 11.3574 144.852 11.3089 146.251 16.276L147.298 19.9919L150.338 20.8773C152.01 21.3643 154.403 22.1067 155.657 22.5275C156.911 22.9478 157.96 23.2678 157.99 23.2379C158.057 23.1707 152.203 5.75612 151.66 4.4078C150.846 2.38691 149.083 1.10686 146.623 0.751107C145.664 0.612435 136.996 0.529231 136.996 0.658303ZM92.7277 18.6713C92.4765 18.6954 90.7623 18.794 88.918 18.8916C87.0742 18.9887 85.5466 19.0863 85.5237 19.1076C85.4735 19.154 90.2519 35.7686 90.6914 37.078C92.1325 41.3683 94.3534 42.9657 98.8688 42.9593C103.188 42.9529 105.466 41.5827 106.636 38.2882C107.763 35.1121 113.1 19.1668 113.052 19.1188C112.971 19.0378 108.792 18.7588 105.833 18.6367L103.394 18.5364L102.267 22.5579C100.301 29.5673 99.8395 30.8404 99.3664 30.5481C99.1339 30.4047 98.3216 27.7069 97.058 22.8849L95.93 18.5796L94.5577 18.6041C93.8024 18.6175 92.9795 18.6479 92.7277 18.6713ZM80.9939 19.3668C76.2865 19.7695 65.8151 20.9658 64.4129 21.2608C63.2267 21.5104 63.8369 22.0363 67.4882 23.9132C71.8271 26.1437 71.5322 25.7527 71.5935 29.3523C71.6751 34.1403 71.8164 34.0363 65.3788 33.9253C56.3251 33.7691 54.1394 32.0799 53.461 24.7132C53.3388 23.3873 53.2327 22.8465 53.094 22.8465C52.6812 22.8465 43.7544 24.7575 43.6424 24.87C43.6216 24.8903 45.0947 28.4344 46.9151 32.7456L50.2251 40.5843L51.0427 40.9427C54.3239 42.3806 55.9272 42.5241 68.1357 42.4718C78.2348 42.4286 78.2524 42.4281 79.1015 42.0841C80.668 41.4499 81.7294 40.2451 82.2521 38.5063C82.5193 37.6178 82.7444 19.5599 82.4905 19.3519C82.4217 19.2954 81.7486 19.3023 80.9939 19.3668ZM115.205 19.2959C115.205 19.6079 121.809 38.8061 122.143 39.4653C123.365 41.8772 125.583 42.9551 129.331 42.9593C133.436 42.9647 135.285 41.9252 136.782 38.7709C137.315 37.6476 141.568 23.7633 141.568 23.1462C141.568 22.9734 132.694 21.3227 131.765 21.3227C131.624 21.3227 131.307 22.2886 130.776 24.3324C128.652 32.5055 128.756 32.4975 126.548 24.6567L125.362 20.4469L121.922 19.9743C118.866 19.5551 115.811 19.1892 115.363 19.1892C115.276 19.1892 115.205 19.2372 115.205 19.2959ZM148.638 24.7895C148.682 24.9362 149.58 28.1422 150.634 31.9135C151.687 35.6854 152.73 39.1448 152.951 39.6008C155.229 44.2991 163.978 44.0703 165.77 39.2658C166.437 37.477 168.415 30.5855 168.292 30.4783C167.757 30.0121 155.88 26.3138 150.909 25.0663C148.383 24.4316 148.535 24.4503 148.638 24.7895ZM39.6972 25.8509C39.278 25.9677 37.4608 26.476 35.6586 26.98C29.4343 28.7214 19.0478 32.3637 18.6925 32.9296C18.2787 33.5883 18.532 33.6203 25.1083 33.7365C30.6163 33.8341 31.3875 33.8779 31.9502 34.1232C32.7299 34.4624 32.6499 34.319 34.5359 38.7709L36.0848 42.4286L41.8151 42.4681C44.9662 42.4905 47.545 42.4494 47.545 42.378C47.545 42.1886 40.6876 25.8349 40.5633 25.7282C40.5063 25.6786 40.1159 25.7335 39.6972 25.8509ZM10.1247 36.6268C5.59331 38.876 0 42.0601 0 42.3897C0 42.4532 2.52011 42.5038 5.60024 42.5022L11.2005 42.5001L12.6325 38.6898C13.4198 36.5937 14.0331 34.8475 13.9947 34.8091C13.9563 34.7712 12.2149 35.5889 10.1247 36.6268ZM180.281 35.4566C180.285 35.5195 180.72 37.1137 181.248 38.9997L182.208 42.4286L187.718 42.4686C190.932 42.4916 193.228 42.451 193.228 42.3705C193.228 42.0526 185.193 37.5202 181.892 35.9761C180.515 35.3318 180.27 35.2529 180.281 35.4566Z" fill="white"/>
</svg>
