<svg
  width="16"
  height="16"
  viewBox="0 0 16 16"
  fill="none"
  xmlns="http://www.w3.org/2000/svg"
>
<path
    d="M11.9994 0.00332907L9.92457 0C7.59358 0 6.08719 1.54552 6.08719 3.93762V5.75313H4.00105C3.82078 5.75313 3.6748 5.89927 3.6748 6.07954V8.71001C3.6748 8.89028 3.82095 9.03625 4.00105 9.03625H6.08719V15.6738C6.08719 15.854 6.23317 16 6.41343 16H9.13525C9.31552 16 9.4615 15.8539 9.4615 15.6738V9.03625H11.9007C12.0809 9.03625 12.2269 8.89028 12.2269 8.71001L12.2279 6.07954C12.2279 5.99299 12.1935 5.91009 12.1324 5.84884C12.0713 5.78758 11.9881 5.75313 11.9015 5.75313H9.4615V4.2141C9.4615 3.47438 9.63777 3.09886 10.6014 3.09886L11.9991 3.09836C12.1792 3.09836 12.3251 2.95222 12.3251 2.77211V0.329578C12.3251 0.149642 12.1793 0.00366197 11.9994 0.00332907Z"
    fill="white"
  />
</svg>
