<svg width="105" height="105" viewBox="0 0 105 105" fill="none" xmlns="http://www.w3.org/2000/svg">
<path d="M0.320312 8C0.320312 3.58172 3.90203 0 8.32031 0H96.6826C101.101 0 104.683 3.58172 104.683 8V96.3623C104.683 100.781 101.101 104.362 96.6826 104.362H8.32031C3.90204 104.362 0.320312 100.781 0.320312 96.3623V8Z" fill="white" fill-opacity="0.28"/>
<g clip-path="url(#clip0_821_460)">
<path d="M65.5492 30.2199L59.4948 30.2102C52.6929 30.2102 48.2972 34.7201 48.2972 41.7003V46.998H42.2098C41.6838 46.998 41.2578 47.4244 41.2578 47.9505V55.6262C41.2578 56.1523 41.6843 56.5782 42.2098 56.5782H48.2972V75.9466C48.2972 76.4726 48.7232 76.8986 49.2492 76.8986H57.1915C57.7176 76.8986 58.1435 76.4722 58.1435 75.9466V56.5782H65.2611C65.7872 56.5782 66.2131 56.1523 66.2131 55.6262L66.216 47.9505C66.216 47.6979 66.1155 47.456 65.9372 47.2773C65.759 47.0985 65.5161 46.998 65.2636 46.998H58.1435V42.5071C58.1435 40.3485 58.6579 39.2528 61.4697 39.2528L65.5482 39.2513C66.0737 39.2513 66.4997 38.8249 66.4997 38.2993V31.1719C66.4997 30.6469 66.0742 30.2209 65.5492 30.2199Z" fill="white"/>
</g>
<defs>
<clipPath id="clip0_821_460">
<rect width="46.6884" height="46.6884" fill="white" transform="translate(30.5312 30.2102)"/>
</clipPath>
</defs>
</svg>
