<svg width="105" height="105" viewBox="0 0 105 105" fill="none" xmlns="http://www.w3.org/2000/svg">
<rect width="104.362" height="104.362" rx="8" fill="white" fill-opacity="0.28"/>
<g clip-path="url(#clip0_821_471)">
<path d="M76.8504 41.9977C76.7346 39.371 76.3098 37.5652 75.7013 36.0005C75.0736 34.3395 74.1079 32.8525 72.8427 31.6163C71.6065 30.3609 70.1096 29.3854 68.4679 28.7675C66.8941 28.159 65.0977 27.7342 62.4711 27.6184C59.8248 27.4928 58.9847 27.4637 52.273 27.4637C45.5613 27.4637 44.7212 27.4928 42.0847 27.6086C39.4581 27.7244 37.6523 28.1496 36.0879 28.7576C34.4266 29.3854 32.9395 30.3511 31.7033 31.6163C30.4479 32.8525 29.4728 34.3493 28.8545 35.9911C28.246 37.5652 27.8213 39.3612 27.7054 41.9879C27.5798 44.6342 27.5508 45.4743 27.5508 52.186C27.5508 58.8977 27.5798 59.7378 27.6956 62.3742C27.8114 65.0009 28.2366 66.8067 28.8451 68.3714C29.4728 70.0324 30.4479 71.5194 31.7033 72.7556C32.9395 74.011 34.4364 74.9866 36.0781 75.6045C37.6523 76.2129 39.4483 76.6377 42.0753 76.7535C44.7114 76.8697 45.5519 76.8984 52.2636 76.8984C58.9753 76.8984 59.8154 76.8697 62.4518 76.7535C65.0785 76.6377 66.8843 76.2129 68.4487 75.6045C71.7709 74.32 74.3976 71.6933 75.6821 68.3714C76.2902 66.7973 76.7153 65.0009 76.8311 62.3742C76.9469 59.7378 76.976 58.8977 76.976 52.186C76.976 45.4743 76.9662 44.6342 76.8504 41.9977ZM72.3987 62.1811C72.2923 64.5954 71.8868 65.8991 71.5488 66.7682C70.7181 68.9218 69.0089 70.6311 66.8552 71.4617C65.9861 71.7997 64.673 72.2052 62.2681 72.3112C59.6607 72.4274 58.8787 72.4561 52.2828 72.4561C45.6869 72.4561 44.8951 72.4274 42.2971 72.3112C39.8828 72.2052 38.5791 71.7997 37.71 71.4617C36.6383 71.0656 35.6628 70.4379 34.871 69.6171C34.0501 68.8154 33.4224 67.8497 33.0263 66.778C32.6883 65.9089 32.2828 64.5954 32.1768 62.1909C32.0606 59.5835 32.0319 58.8011 32.0319 52.2052C32.0319 45.6093 32.0606 44.8175 32.1768 42.2199C32.2828 39.8056 32.6883 38.5019 33.0263 37.6328C33.4224 36.5607 34.0501 35.5855 34.8808 34.7933C35.682 33.9725 36.6477 33.3448 37.7198 32.9491C38.5889 32.6111 39.9025 32.2055 42.3069 32.0992C44.9144 31.9834 45.6967 31.9543 52.2922 31.9543C58.8979 31.9543 59.6799 31.9834 62.2779 32.0992C64.6922 32.2055 65.9959 32.6111 66.8651 32.9491C67.9368 33.3448 68.9123 33.9725 69.7041 34.7933C70.525 35.595 71.1527 36.5607 71.5488 37.6328C71.8868 38.5019 72.2923 39.815 72.3987 42.2199C72.5145 44.8273 72.5435 45.6093 72.5435 52.2052C72.5435 58.8011 72.5145 59.5737 72.3987 62.1811Z" fill="white"/>
<path d="M52.2772 39.4868C45.2664 39.4868 39.5781 45.1747 39.5781 52.1859C39.5781 59.1971 45.2664 64.885 52.2772 64.885C59.2885 64.885 64.9763 59.1971 64.9763 52.1859C64.9763 45.1747 59.2885 39.4868 52.2772 39.4868ZM52.2772 60.4235C47.729 60.4235 44.0396 56.7346 44.0396 52.1859C44.0396 47.6373 47.729 43.9483 52.2772 43.9483C56.8259 43.9483 60.5148 47.6373 60.5148 52.1859C60.5148 56.7346 56.8259 60.4235 52.2772 60.4235Z" fill="white"/>
<path d="M68.4414 38.9847C68.4414 40.6219 67.1139 41.9493 65.4764 41.9493C63.8392 41.9493 62.5117 40.6219 62.5117 38.9847C62.5117 37.3471 63.8392 36.02 65.4764 36.02C67.1139 36.02 68.4414 37.3471 68.4414 38.9847Z" fill="white"/>
</g>
<defs>
<clipPath id="clip0_821_471">
<rect width="49.4348" height="49.4348" fill="white" transform="translate(27.4648 27.4637)"/>
</clipPath>
</defs>
</svg>
